<svg width="18" height="18" viewBox="0 0 18 18" fill="none" xmlns="http://www.w3.org/2000/svg">
<path d="M9 0C11.4442 0 11.751 0.00991141 12.7109 0.0537109C13.6688 0.0974171 14.3231 0.250175 14.8955 0.472656C15.4873 0.702613 15.9889 1.01046 16.4893 1.51074C16.9895 2.01106 17.2974 2.51275 17.5273 3.10449C17.7498 3.67691 17.9026 4.33124 17.9463 5.28906C17.9901 6.24901 18 6.55575 18 9C18 11.4442 17.9901 11.751 17.9463 12.7109C17.9026 13.6688 17.7498 14.3231 17.5273 14.8955C17.2974 15.4872 16.9895 15.9889 16.4893 16.4893C15.9889 16.9895 15.4872 17.2974 14.8955 17.5273C14.3231 17.7498 13.6688 17.9026 12.7109 17.9463C11.751 17.9901 11.4442 18 9 18C6.55575 18 6.24901 17.9901 5.28906 17.9463C4.33124 17.9026 3.67691 17.7498 3.10449 17.5273C2.51275 17.2974 2.01106 16.9895 1.51074 16.4893C1.01046 15.9889 0.702613 15.4873 0.472656 14.8955C0.250175 14.3231 0.0974171 13.6688 0.0537109 12.7109C0.00991141 11.751 0 11.4442 0 9C5.15411e-08 6.55575 0.00991152 6.24901 0.0537109 5.28906C0.097417 4.33124 0.250175 3.67691 0.472656 3.10449C0.702613 2.51275 1.01046 2.01106 1.51074 1.51074C2.01106 1.01046 2.51275 0.702613 3.10449 0.472656C3.67691 0.250175 4.33124 0.097417 5.28906 0.0537109C6.24901 0.00991152 6.55575 5.15394e-08 9 0ZM9 1.62207C6.59696 1.62207 6.31224 1.63053 5.36328 1.67383C4.48593 1.71383 4.00952 1.86113 3.69238 1.98438C3.27229 2.14764 2.97215 2.34227 2.65723 2.65723C2.34227 2.97215 2.14764 3.27229 1.98438 3.69238C1.86113 4.00952 1.71383 4.48593 1.67383 5.36328C1.63053 6.31224 1.62207 6.59696 1.62207 9C1.62207 11.403 1.63053 11.6878 1.67383 12.6367C1.71383 13.5141 1.86113 13.9905 1.98438 14.3076C2.14764 14.7277 2.34231 15.0279 2.65723 15.3428C2.97215 15.6577 3.27229 15.8524 3.69238 16.0156C4.00952 16.1389 4.48593 16.2862 5.36328 16.3262C6.31213 16.3695 6.59678 16.3779 9 16.3779C11.4032 16.3779 11.6879 16.3695 12.6367 16.3262C13.5141 16.2862 13.9905 16.1389 14.3076 16.0156C14.7277 15.8524 15.0279 15.6577 15.3428 15.3428C15.6577 15.0279 15.8524 14.7277 16.0156 14.3076C16.1389 13.9905 16.2862 13.5141 16.3262 12.6367C16.3695 11.6878 16.3779 11.403 16.3779 9C16.3779 6.59696 16.3695 6.31224 16.3262 5.36328C16.2862 4.48593 16.1389 4.00952 16.0156 3.69238C15.8524 3.27229 15.6577 2.97215 15.3428 2.65723C15.0279 2.34227 14.7277 2.14764 14.3076 1.98438C13.9905 1.86113 13.5141 1.71383 12.6367 1.67383C11.6878 1.63053 11.403 1.62207 9 1.62207ZM9 4.37793C11.5524 4.37793 13.6221 6.44752 13.6221 9C13.6221 11.5524 11.5524 13.6221 9 13.6221C6.44752 13.6221 4.37793 11.5524 4.37793 9C4.37794 6.44753 6.44753 4.37794 9 4.37793ZM9 6C7.34313 6.00001 6.00001 7.34313 6 9C6 10.6568 7.34313 12 9 12C10.6568 12 12 10.6568 12 9C12 7.34313 10.6568 6 9 6ZM13.8047 3.11621C14.4008 3.11647 14.8835 3.59922 14.8838 4.19531C14.8838 4.79163 14.4009 5.27513 13.8047 5.27539C13.2082 5.27539 12.7246 4.79179 12.7246 4.19531C12.7249 3.59906 13.2084 3.11621 13.8047 3.11621Z" fill="white"/>
</svg>
