<svg width="56" height="56" viewBox="0 0 56 56" fill="none" xmlns="http://www.w3.org/2000/svg">
<path d="M28 0.375C22.5363 0.375 17.1953 1.99518 12.6524 5.03065C8.10948 8.06613 4.56871 12.3806 2.47784 17.4284C0.386969 22.4762 -0.160098 28.0306 0.905819 33.3894C1.97174 38.7481 4.60276 43.6704 8.46619 47.5338C12.3296 51.3973 17.2519 54.0283 22.6106 55.0942C27.9694 56.1601 33.5238 55.613 38.5716 53.5222C43.6194 51.4313 47.9339 47.8905 50.9694 43.3476C54.0048 38.8047 55.625 33.4637 55.625 28C55.6173 20.6758 52.7043 13.6537 47.5253 8.47472C42.3463 3.2957 35.3242 0.382735 28 0.375ZM38.7711 29.7478L24.9586 39.3103C24.6397 39.5308 24.2666 39.6599 23.8796 39.6835C23.4927 39.7072 23.1066 39.6245 22.7633 39.4445C22.4199 39.2645 22.1324 38.9939 21.9317 38.6622C21.7311 38.3305 21.625 37.9502 21.625 37.5625V18.4375C21.625 18.0498 21.7311 17.6695 21.9317 17.3378C22.1324 17.0061 22.4199 16.7355 22.7633 16.5555C23.1066 16.3755 23.4927 16.2928 23.8796 16.3165C24.2666 16.3401 24.6397 16.4692 24.9586 16.6897L38.7711 26.2522C39.0538 26.4477 39.2849 26.7088 39.4445 27.0133C39.6041 27.3177 39.6875 27.6563 39.6875 28C39.6875 28.3437 39.6041 28.6823 39.4445 28.9867C39.2849 29.2912 39.0538 29.5523 38.7711 29.7478Z" fill="white"/>
</svg>
