<svg width="22" height="22" viewBox="0 0 22 22" fill="none" xmlns="http://www.w3.org/2000/svg">
<path d="M11 3.43788C9.36832 3.43788 7.77327 3.92174 6.41656 4.82826C5.05986 5.73478 4.00243 7.02325 3.37801 8.53074C2.75359 10.0382 2.59021 11.697 2.90854 13.2974C3.22687 14.8977 4.0126 16.3677 5.16638 17.5215C6.32017 18.6753 7.79018 19.461 9.39052 19.7794C10.9909 20.0977 12.6497 19.9343 14.1572 19.3099C15.6646 18.6855 16.9531 17.628 17.8596 16.2713C18.7662 14.9146 19.25 13.3196 19.25 11.6879C19.2475 9.50061 18.3775 7.40365 16.8309 5.85701C15.2843 4.31038 13.1873 3.44038 11 3.43788ZM11 18.5629C9.64027 18.5629 8.31106 18.1597 7.18047 17.4042C6.04988 16.6488 5.1687 15.5751 4.64834 14.3188C4.12799 13.0626 3.99184 11.6803 4.25712 10.3466C4.52239 9.01302 5.17717 7.78801 6.13866 6.82652C7.10014 5.86504 8.32515 5.21026 9.65877 4.94498C10.9924 4.67971 12.3747 4.81586 13.631 5.33621C14.8872 5.85656 15.9609 6.73775 16.7164 7.86834C17.4718 8.99892 17.875 10.3281 17.875 11.6879C17.873 13.5106 17.148 15.2581 15.8591 16.547C14.5702 17.8359 12.8228 18.5608 11 18.5629ZM5.29892 3.23679L2.54892 5.98679C2.41992 6.11579 2.24495 6.18826 2.06252 6.18826C1.88008 6.18826 1.70511 6.11579 1.57611 5.98679C1.44711 5.85779 1.37463 5.68282 1.37463 5.50038C1.37463 5.31794 1.44711 5.14298 1.57611 5.01398L4.32611 2.26398C4.45511 2.13497 4.63008 2.0625 4.81252 2.0625C4.99495 2.0625 5.16992 2.13497 5.29892 2.26398C5.42793 2.39298 5.5004 2.56794 5.5004 2.75038C5.5004 2.93282 5.42793 3.10779 5.29892 3.23679ZM20.4239 5.98679C20.3601 6.05071 20.2843 6.10142 20.2008 6.13602C20.1173 6.17061 20.0279 6.18842 19.9375 6.18842C19.8472 6.18842 19.7577 6.17061 19.6742 6.13602C19.5908 6.10142 19.515 6.05071 19.4511 5.98679L16.7011 3.23679C16.5721 3.10779 16.4996 2.93282 16.4996 2.75038C16.4996 2.56794 16.5721 2.39298 16.7011 2.26398C16.8301 2.13497 17.0051 2.0625 17.1875 2.0625C17.37 2.0625 17.5449 2.13497 17.6739 2.26398L20.4239 5.01398C20.4878 5.07783 20.5386 5.15365 20.5732 5.23711C20.6077 5.32057 20.6256 5.41003 20.6256 5.50038C20.6256 5.59073 20.6077 5.68019 20.5732 5.76365C20.5386 5.84711 20.4878 5.92294 20.4239 5.98679ZM15.8125 11.0004C15.9949 11.0004 16.1697 11.0728 16.2987 11.2017C16.4276 11.3307 16.5 11.5055 16.5 11.6879C16.5 11.8702 16.4276 12.0451 16.2987 12.174C16.1697 12.3029 15.9949 12.3754 15.8125 12.3754H11C10.8177 12.3754 10.6428 12.3029 10.5139 12.174C10.3849 12.0451 10.3125 11.8702 10.3125 11.6879V6.87538C10.3125 6.69305 10.3849 6.51818 10.5139 6.38925C10.6428 6.26032 10.8177 6.18788 11 6.18788C11.1824 6.18788 11.3572 6.26032 11.4862 6.38925C11.6151 6.51818 11.6875 6.69305 11.6875 6.87538V11.0004H15.8125Z" fill="#121F3E"/>
</svg>
