<svg
          width="32"
          height="32"
          viewBox="0 0 32 32"
          fill="none"
          xmlns="http://www.w3.org/2000/svg"
        >
          <rect width="32" height="32" rx="16" fill="#090909" />
          <path
            d="M22.25 10.0625H20.2516L19.2812 8.60469C19.1955 8.47615 19.0793 8.37081 18.943 8.29802C18.8067 8.22524 18.6545 8.18727 18.5 8.1875H13.5C13.3455 8.18727 13.1933 8.22524 13.057 8.29802C12.9207 8.37081 12.8045 8.47615 12.7188 8.60469L11.7477 10.0625H9.75C9.16984 10.0625 8.61344 10.293 8.2032 10.7032C7.79297 11.1134 7.5625 11.6698 7.5625 12.25V21C7.5625 21.5802 7.79297 22.1366 8.2032 22.5468C8.61344 22.957 9.16984 23.1875 9.75 23.1875H22.25C22.5373 23.1875 22.8217 23.1309 23.0871 23.021C23.3525 22.9111 23.5937 22.7499 23.7968 22.5468C23.9999 22.3437 24.1611 22.1025 24.271 21.8371C24.3809 21.5717 24.4375 21.2873 24.4375 21V12.25C24.4375 11.9627 24.3809 11.6783 24.271 11.4129C24.1611 11.1475 23.9999 10.9063 23.7968 10.7032C23.5937 10.5001 23.3525 10.3389 23.0871 10.229C22.8217 10.1191 22.5373 10.0625 22.25 10.0625ZM22.5625 21C22.5625 21.0829 22.5296 21.1624 22.471 21.221C22.4124 21.2796 22.3329 21.3125 22.25 21.3125H9.75C9.66712 21.3125 9.58763 21.2796 9.52903 21.221C9.47042 21.1624 9.4375 21.0829 9.4375 21V12.25C9.4375 12.1671 9.47042 12.0876 9.52903 12.029C9.58763 11.9704 9.66712 11.9375 9.75 11.9375H12.25C12.4045 11.9377 12.5567 11.8998 12.693 11.827C12.8293 11.7542 12.9455 11.6488 13.0312 11.5203L14.0016 10.0625H17.9977L18.9688 11.5203C19.0545 11.6488 19.1707 11.7542 19.307 11.827C19.4433 11.8998 19.5955 11.9377 19.75 11.9375H22.25C22.3329 11.9375 22.4124 11.9704 22.471 12.029C22.5296 12.0876 22.5625 12.1671 22.5625 12.25V21ZM16 12.5625C15.2583 12.5625 14.5333 12.7824 13.9166 13.1945C13.2999 13.6065 12.8193 14.1922 12.5355 14.8774C12.2516 15.5627 12.1774 16.3167 12.3221 17.0441C12.4668 17.7715 12.8239 18.4397 13.3483 18.9642C13.8728 19.4886 14.541 19.8458 15.2684 19.9904C15.9958 20.1351 16.7498 20.0609 17.4351 19.7771C18.1203 19.4932 18.706 19.0126 19.118 18.3959C19.5301 17.7792 19.75 17.0542 19.75 16.3125C19.749 15.3183 19.3535 14.365 18.6505 13.662C17.9475 12.959 16.9942 12.5635 16 12.5625ZM16 18.1875C15.6292 18.1875 15.2666 18.0775 14.9583 17.8715C14.65 17.6655 14.4096 17.3726 14.2677 17.03C14.1258 16.6874 14.0887 16.3104 14.161 15.9467C14.2334 15.583 14.412 15.2489 14.6742 14.9867C14.9364 14.7245 15.2705 14.5459 15.6342 14.4735C15.9979 14.4012 16.3749 14.4383 16.7175 14.5802C17.0601 14.7221 17.353 14.9625 17.559 15.2708C17.765 15.5791 17.875 15.9417 17.875 16.3125C17.875 16.8098 17.6775 17.2867 17.3258 17.6383C16.9742 17.99 16.4973 18.1875 16 18.1875Z"
            fill="white"
          />
        </svg>