<svg width="18" height="18" viewBox="0 0 18 18" fill="none" xmlns="http://www.w3.org/2000/svg">
<path d="M17.2969 6.94195L13.3594 2.44195C13.3067 2.38182 13.2419 2.3336 13.1691 2.3005C13.0964 2.26741 13.0174 2.25019 12.9375 2.25H5.06251C4.98259 2.25019 4.90363 2.26741 4.83089 2.3005C4.75814 2.3336 4.69329 2.38182 4.64064 2.44195L0.70314 6.94195C0.611282 7.04683 0.561644 7.18208 0.563852 7.32148C0.566061 7.46088 0.619959 7.59449 0.715093 7.69641L8.59009 16.1339C8.64272 16.1903 8.7064 16.2353 8.77716 16.2661C8.84793 16.2968 8.92426 16.3127 9.00142 16.3127C9.07858 16.3127 9.15492 16.2968 9.22568 16.2661C9.29644 16.2353 9.36012 16.1903 9.41275 16.1339L17.2877 7.69641C17.3825 7.59414 17.4359 7.46034 17.4376 7.32094C17.4393 7.18154 17.3891 7.04648 17.2969 6.94195ZM15.6354 6.75H12.6563L10.125 3.375H12.6823L15.6354 6.75ZM5.24392 7.875L7.36244 13.1716L2.41947 7.875H5.24392ZM12.7561 7.875H15.5806L10.6376 13.1716L12.7561 7.875ZM5.31775 3.375H7.87501L5.34376 6.75H2.36462L5.31775 3.375Z" fill="white"/>
</svg>
