<svg width="22" height="22" viewBox="0 0 22 22" fill="none" xmlns="http://www.w3.org/2000/svg">
<path d="M21.1406 8.48461L16.3281 2.98461C16.2638 2.91112 16.1845 2.85218 16.0956 2.81173C16.0067 2.77127 15.9102 2.75023 15.8125 2.75H6.18751C6.08983 2.75023 5.99332 2.77127 5.90441 2.81173C5.8155 2.85218 5.73623 2.91112 5.67188 2.98461L0.859383 8.48461C0.747112 8.61279 0.686443 8.7781 0.689143 8.94848C0.691842 9.11885 0.757717 9.28216 0.873992 9.40672L10.499 19.7192C10.5633 19.7882 10.6411 19.8432 10.7276 19.8808C10.8141 19.9184 10.9074 19.9378 11.0017 19.9378C11.096 19.9378 11.1893 19.9184 11.2758 19.8808C11.3623 19.8432 11.4401 19.7882 11.5045 19.7192L21.1295 9.40672C21.2453 9.28173 21.3105 9.11819 21.3126 8.94781C21.3146 8.77744 21.2534 8.61237 21.1406 8.48461ZM19.1099 8.25H15.4688L12.375 4.125H15.5006L19.1099 8.25ZM6.40923 9.625L8.99852 16.0987L2.95712 9.625H6.40923ZM15.5908 9.625H19.0429L13.0015 16.0987L15.5908 9.625ZM6.49946 4.125H9.62501L6.53126 8.25H2.89009L6.49946 4.125Z" fill="#1DB0F6"/>
</svg>
