<svg width="22" height="22" viewBox="0 0 22 22" fill="none" xmlns="http://www.w3.org/2000/svg">
<path d="M20.625 8.76562C20.625 14.7812 11.7055 19.6505 11.3257 19.8516C11.2256 19.9054 11.1137 19.9336 11 19.9336C10.8863 19.9336 10.7744 19.9054 10.6743 19.8516C10.2945 19.6505 1.375 14.7812 1.375 8.76562C1.37659 7.35301 1.93846 5.9987 2.93733 4.99983C3.9362 4.00096 5.29051 3.43909 6.70312 3.4375C8.47773 3.4375 10.0315 4.20062 11 5.49055C11.9685 4.20062 13.5223 3.4375 15.2969 3.4375C16.7095 3.43909 18.0638 4.00096 19.0627 4.99983C20.0615 5.9987 20.6234 7.35301 20.625 8.76562Z" fill="#FF3B30"/>
</svg>
