<svg width="22" height="23" viewBox="0 0 22 23" fill="none" xmlns="http://www.w3.org/2000/svg">
<path d="M21.656 11.1696C21.6561 12.1895 21.3538 13.1865 20.7872 14.0345C20.2206 14.8826 19.4153 15.5436 18.473 15.9339C17.5308 16.3242 16.4939 16.4263 15.4936 16.2273C14.4933 16.0283 13.5745 15.5371 12.8534 14.8159L12.8113 14.7703L7.66708 8.96183C7.23217 8.53488 6.68084 8.2459 6.08229 8.13115C5.48374 8.0164 4.86463 8.08099 4.30265 8.31681C3.74068 8.55264 3.26087 8.9492 2.92345 9.45672C2.58603 9.96424 2.40603 10.5601 2.40603 11.1696C2.40603 11.779 2.58603 12.3749 2.92345 12.8824C3.26087 13.3899 3.74068 13.7865 4.30265 14.0223C4.86463 14.2581 5.48374 14.3227 6.08229 14.208C6.68084 14.0932 7.23217 13.8042 7.66708 13.3773L7.93177 13.0782C8.11308 12.8731 8.36845 12.7484 8.6417 12.7316C8.91496 12.7147 9.18371 12.8071 9.38883 12.9884C9.59396 13.1697 9.71867 13.4251 9.73551 13.6984C9.75235 13.9716 9.65995 14.2404 9.47864 14.4455L9.19075 14.7703L9.14864 14.8159C8.42749 15.5369 7.50873 16.0279 6.50854 16.2268C5.50835 16.4257 4.47165 16.3235 3.52952 15.9332C2.58739 15.5429 1.78214 14.8821 1.2156 14.0341C0.649066 13.1862 0.34668 12.1893 0.34668 11.1696C0.34668 10.1498 0.649066 9.15292 1.2156 8.305C1.78214 7.45707 2.58739 6.79619 3.52952 6.4059C4.47165 6.01561 5.50835 5.91344 6.50854 6.11233C7.50873 6.31121 8.42749 6.80221 9.14864 7.52324L9.19075 7.56878L14.335 13.3773C14.7699 13.8042 15.3212 14.0932 15.9198 14.208C16.5183 14.3227 17.1374 14.2581 17.6994 14.0223C18.2614 13.7865 18.7412 13.3899 19.0786 12.8824C19.416 12.3749 19.596 11.779 19.596 11.1696C19.596 10.5601 19.416 9.96424 19.0786 9.45672C18.7412 8.9492 18.2614 8.55264 17.6994 8.31681C17.1374 8.08099 16.5183 8.0164 15.9198 8.13115C15.3212 8.2459 14.7699 8.53488 14.335 8.96183L14.0703 9.26089C13.9805 9.36246 13.8716 9.44536 13.7498 9.50484C13.628 9.56432 13.4956 9.59923 13.3603 9.60757C13.225 9.6159 13.0894 9.59751 12.9612 9.55344C12.833 9.50937 12.7148 9.44047 12.6132 9.3507C12.5116 9.26092 12.4287 9.15202 12.3693 9.03021C12.3098 8.9084 12.2749 8.77606 12.2665 8.64076C12.2582 8.50546 12.2766 8.36984 12.3207 8.24165C12.3647 8.11345 12.4336 7.9952 12.5234 7.89363L12.8113 7.56878L12.8534 7.52324C13.5745 6.802 14.4933 6.31081 15.4936 6.11181C16.4939 5.9128 17.5308 6.01491 18.473 6.40523C19.4153 6.79554 20.2206 7.45653 20.7872 8.30458C21.3538 9.15264 21.6561 10.1497 21.656 11.1696Z" fill="#FF3B30"/>
</svg>
