<svg width="39" height="54" viewBox="0 0 39 54" fill="none" xmlns="http://www.w3.org/2000/svg">
<path d="M36.7059 0H2.29412C1.02711 0 0 1.20883 0 2.7V51.3C0 52.7912 1.02711 54 2.29412 54H36.7059C37.9729 54 39 52.7912 39 51.3V2.7C39 1.20883 37.9729 0 36.7059 0Z" fill="#FC5555"/>
<path opacity="0.6" d="M19.5485 23.1967C19.9607 23.4207 19.875 23.7109 19.7482 25.0821C19.6187 26.4965 19.1846 29.0802 18.3483 31.6218C17.5111 34.1592 16.2689 36.6525 15.1863 38.498C14.1046 40.3445 13.1789 41.5444 12.473 42.2373C11.7644 42.9303 11.2746 43.1154 10.9545 43.1764C10.6371 43.2374 10.493 43.1764 10.4073 42.9903C10.3216 42.8052 10.2915 42.5002 10.3653 42.128C10.4374 41.7599 10.6098 41.3288 11.0986 40.7767C11.592 40.2225 12.3992 39.5443 13.5255 38.9144C14.6519 38.2835 16.0947 37.6988 17.2794 37.2981C18.4641 36.8996 19.3871 36.683 20.1951 36.5137C21.005 36.3433 21.6972 36.2224 22.3758 36.1593C23.0543 36.1004 23.7201 36.1004 24.3695 36.1593C25.0188 36.2224 25.6536 36.3433 26.2036 36.499C26.7508 36.6525 27.2141 36.8365 27.6181 37.131C28.0212 37.4212 28.3687 37.8218 28.5411 38.2698C28.7162 38.7146 28.7162 39.2088 28.5712 39.5611C28.4271 39.9155 28.137 40.13 27.806 40.2551C27.474 40.3761 27.0992 40.4066 26.6504 40.2551C26.2036 40.0995 25.6819 39.7609 25.1347 39.315C24.5865 38.8681 24.0083 38.314 23.2586 37.4527C22.5071 36.5915 21.5823 35.4232 20.8035 34.2844C20.0246 33.1455 19.3871 32.0382 18.9539 31.0992C18.5225 30.1601 18.2908 29.3914 18.103 28.6228C17.9151 27.852 17.771 27.0833 17.7135 26.3913C17.6561 25.6994 17.6825 25.0821 17.7409 24.589C17.7983 24.0989 17.8868 23.7267 18.03 23.4796C18.1741 23.2377 18.3775 23.1115 18.5216 23.0505C18.6657 22.9895 18.7532 22.9895 18.839 22.9738C18.9247 22.958 19.0104 22.9275 19.1427 22.9738C19.2685 23.0179 19.4354 23.1357 19.6023 23.2556" stroke="white" stroke-miterlimit="10" stroke-linejoin="round"/>
<path fill-rule="evenodd" clip-rule="evenodd" d="M25.6368 8.1C25.5144 8.1 25.415 8.1405 25.3385 8.2215C25.2697 8.2935 25.2353 8.388 25.2353 8.505V9.45H26.3823V10.8H25.2353V14.85H26.3823V16.2H22.9412V14.85H24.0882V10.8H22.9412V9.45H24.0882V8.235C24.0882 7.776 24.1991 7.416 24.4209 7.155C24.6426 6.885 24.9294 6.75 25.2812 6.75H26.9559V8.1L25.6368 8.1ZM12.3882 9.45V9.774C12.6253 9.558 12.9312 9.45 13.3059 9.45H14.1088C14.7818 9.45 15.275 9.621 15.5885 9.963C15.9021 10.296 16.0588 10.845 16.0588 11.61V14.04C16.0588 14.796 15.8982 15.345 15.5771 15.687C15.2635 16.029 14.7741 16.2 14.1088 16.2H12.6291V18.9H11.4706V9.45H12.3882ZM13.3632 10.8C13.1109 10.8 12.9235 10.881 12.8012 11.043C12.6788 11.196 12.6176 11.3625 12.6176 11.5425L12.6291 14.85H14.0515C14.3344 14.85 14.5485 14.7735 14.6938 14.6205C14.8391 14.4675 14.9118 14.2515 14.9118 13.9725V11.6775C14.9118 11.3985 14.8391 11.1825 14.6938 11.0295C14.5485 10.8765 14.3344 10.8 14.0515 10.8H13.3632ZM19.7294 16.2C20.0888 16.2 20.3947 16.0965 20.6471 15.8895V16.2H21.7941V6.75H20.6471V9.45H19.2247C18.5594 9.45 17.9973 9.621 17.6762 9.963C17.3626 10.305 17.2059 10.854 17.2059 11.61V14.04C17.2059 14.805 17.3626 15.3585 17.6762 15.7005C17.9897 16.0335 18.4829 16.2 19.1559 16.2H19.7294ZM20.4635 14.6205C20.3412 14.7735 20.1538 14.85 19.9015 14.85H19.2132C18.9303 14.85 18.7162 14.7735 18.5709 14.6205C18.4256 14.4675 18.3529 14.2515 18.3529 13.9725V11.6775C18.3529 11.3985 18.4256 11.1825 18.5709 11.0295C18.7162 10.8765 18.9303 10.8 19.2132 10.8H20.6471V14.1075C20.6471 14.2875 20.5859 14.4585 20.4635 14.6205Z" fill="white"/>
</svg>
