<svg width="29" height="28" viewBox="0 0 29 28" fill="none" xmlns="http://www.w3.org/2000/svg">
<path d="M27.2499 8.75001C27.2504 8.27035 27.1381 7.7973 26.9222 7.36897C26.7063 6.94065 26.3929 6.56901 26.0071 6.28402C25.6213 5.99903 25.1739 5.80864 24.701 5.7282C24.2282 5.64776 23.743 5.67952 23.2847 5.82092C22.8263 5.96231 22.4076 6.20939 22.0622 6.54224C21.7169 6.8751 21.4545 7.28442 21.2963 7.73724C21.1381 8.19005 21.0885 8.6737 21.1514 9.14921C21.2144 9.62472 21.3881 10.0788 21.6587 10.4749L18.7285 14.0842L16.0937 8.02813C16.5742 7.62368 16.9188 7.08126 17.0807 6.47438C17.2426 5.86751 17.214 5.22553 16.9987 4.63548C16.7834 4.04542 16.3919 3.53582 15.8773 3.17575C15.3627 2.81568 14.7498 2.62256 14.1217 2.62256C13.4936 2.62256 12.8807 2.81568 12.366 3.17575C11.8514 3.53582 11.4599 4.04542 11.2446 4.63548C11.0294 5.22553 11.0007 5.86751 11.1626 6.47438C11.3245 7.08126 11.6691 7.62368 12.1496 8.02813L9.52135 14.0809L6.5912 10.4716C6.9676 9.92004 7.15344 9.26061 7.1204 8.5937C7.08736 7.92678 6.83726 7.28894 6.4082 6.77732C5.97913 6.26569 5.3946 5.90831 4.74364 5.75962C4.09267 5.61092 3.41095 5.67905 2.80229 5.95364C2.19363 6.22822 1.69139 6.69421 1.37206 7.28063C1.05273 7.86705 0.93381 8.54177 1.03341 9.20203C1.13301 9.86229 1.44568 10.4719 1.92379 10.938C2.40189 11.4042 3.01925 11.7013 3.68182 11.7841L5.26557 21.2877C5.33366 21.6962 5.54447 22.0674 5.8605 22.3352C6.17653 22.603 6.57729 22.7499 6.99151 22.75H21.2584C21.6726 22.7499 22.0734 22.603 22.3894 22.3352C22.7054 22.0674 22.9162 21.6962 22.9843 21.2877L24.567 11.7884C25.3076 11.6959 25.989 11.3361 26.4831 10.7766C26.9771 10.2171 27.2498 9.49643 27.2499 8.75001ZM14.1249 4.37501C14.3845 4.37501 14.6383 4.45199 14.8541 4.5962C15.07 4.74042 15.2382 4.94541 15.3375 5.18524C15.4369 5.42506 15.4629 5.68896 15.4122 5.94356C15.3616 6.19816 15.2366 6.43203 15.053 6.61559C14.8695 6.79914 14.6356 6.92415 14.381 6.97479C14.1264 7.02543 13.8625 6.99944 13.6227 6.9001C13.3828 6.80076 13.1779 6.63253 13.0336 6.41669C12.8894 6.20085 12.8124 5.9471 12.8124 5.68751C12.8124 5.33941 12.9507 5.00557 13.1969 4.75943C13.443 4.51329 13.7768 4.37501 14.1249 4.37501ZM2.74995 8.75001C2.74995 8.49042 2.82692 8.23666 2.97114 8.02082C3.11536 7.80498 3.32035 7.63676 3.56017 7.53742C3.8 7.43808 4.0639 7.41208 4.3185 7.46273C4.5731 7.51337 4.80697 7.63837 4.99052 7.82193C5.17408 8.00549 5.29908 8.23935 5.34973 8.49395C5.40037 8.74855 5.37438 9.01245 5.27504 9.25228C5.1757 9.49211 5.00747 9.69709 4.79163 9.84131C4.57579 9.98553 4.32203 10.0625 4.06245 10.0625C3.71435 10.0625 3.38051 9.92423 3.13437 9.67809C2.88823 9.43194 2.74995 9.0981 2.74995 8.75001ZM24.1874 10.0625C23.9279 10.0625 23.6741 9.98553 23.4583 9.84131C23.2424 9.69709 23.0742 9.49211 22.9749 9.25228C22.8755 9.01245 22.8495 8.74855 22.9002 8.49395C22.9508 8.23935 23.0758 8.00549 23.2594 7.82193C23.4429 7.63837 23.6768 7.51337 23.9314 7.46273C24.186 7.41208 24.4499 7.43808 24.6897 7.53742C24.9295 7.63676 25.1345 7.80498 25.2787 8.02082C25.423 8.23666 25.4999 8.49042 25.4999 8.75001C25.4999 9.0981 25.3617 9.43194 25.1155 9.67809C24.8694 9.92423 24.5355 10.0625 24.1874 10.0625Z" fill="#FF2D55"/>
</svg>
