<svg width="24" height="24" viewBox="0 0 24 24" fill="none" xmlns="http://www.w3.org/2000/svg">
<path d="M23.0625 9.25594L17.8125 3.25594C17.7423 3.17577 17.6558 3.11147 17.5589 3.06734C17.4619 3.02321 17.3566 3.00025 17.25 3H6.75002C6.64346 3.00025 6.53818 3.02321 6.44118 3.06734C6.34419 3.11147 6.25772 3.17577 6.18752 3.25594L0.93752 9.25594C0.815042 9.39577 0.748858 9.57611 0.751803 9.76197C0.754748 9.94784 0.826611 10.126 0.953457 10.2619L11.4535 21.5119C11.5236 21.5871 11.6085 21.6471 11.7029 21.6881C11.7972 21.7291 11.899 21.7503 12.0019 21.7503C12.1048 21.7503 12.2066 21.7291 12.3009 21.6881C12.3953 21.6471 12.4802 21.5871 12.5503 21.5119L23.0503 10.2619C23.1767 10.1255 23.2478 9.94712 23.2501 9.76125C23.2523 9.57539 23.1855 9.39531 23.0625 9.25594ZM20.8472 9H16.875L13.5 4.5H16.9097L20.8472 9ZM6.99189 10.5L9.81658 17.5622L3.22596 10.5H6.99189ZM17.0081 10.5H20.7741L14.1835 17.5622L17.0081 10.5ZM7.09033 4.5H10.5L7.12502 9H3.15283L7.09033 4.5Z" fill="#919191"/>
</svg>
