<svg width="29" height="28" viewBox="0 0 29 28" fill="none" xmlns="http://www.w3.org/2000/svg">
<path d="M23.3751 15.75C23.3773 16.1068 23.2689 16.4554 23.0648 16.7481C22.8607 17.0407 22.5709 17.2629 22.2354 17.3841L16.5938 19.4688L14.5157 25.1147C14.3926 25.449 14.17 25.7375 13.8778 25.9414C13.5856 26.1452 13.2379 26.2544 12.8816 26.2544C12.5254 26.2544 12.1777 26.1452 11.8855 25.9414C11.5933 25.7375 11.3706 25.449 11.2476 25.1147L9.1563 19.4688L3.51036 17.3906C3.17604 17.2676 2.8875 17.0449 2.68369 16.7527C2.47988 16.4605 2.37061 16.1128 2.37061 15.7566C2.37061 15.4003 2.47988 15.0526 2.68369 14.7604C2.8875 14.4682 3.17604 14.2456 3.51036 14.1225L9.1563 12.0312L11.2344 6.38531C11.3575 6.05098 11.5801 5.76245 11.8723 5.55864C12.1645 5.35483 12.5122 5.24555 12.8685 5.24555C13.2247 5.24555 13.5724 5.35483 13.8646 5.55864C14.1568 5.76245 14.3795 6.05098 14.5026 6.38531L16.5938 12.0312L22.2397 14.1094C22.5755 14.2316 22.8651 14.4551 23.0685 14.749C23.2718 15.0429 23.379 15.3926 23.3751 15.75ZM17.2501 5.25H19.0001V7C19.0001 7.23206 19.0922 7.45462 19.2563 7.61872C19.4204 7.78281 19.643 7.875 19.8751 7.875C20.1071 7.875 20.3297 7.78281 20.4938 7.61872C20.6579 7.45462 20.7501 7.23206 20.7501 7V5.25H22.5001C22.7321 5.25 22.9547 5.15781 23.1188 4.99372C23.2829 4.82962 23.3751 4.60706 23.3751 4.375C23.3751 4.14294 23.2829 3.92038 23.1188 3.75628C22.9547 3.59219 22.7321 3.5 22.5001 3.5H20.7501V1.75C20.7501 1.51794 20.6579 1.29538 20.4938 1.13128C20.3297 0.967187 20.1071 0.875 19.8751 0.875C19.643 0.875 19.4204 0.967187 19.2563 1.13128C19.0922 1.29538 19.0001 1.51794 19.0001 1.75V3.5H17.2501C17.018 3.5 16.7954 3.59219 16.6313 3.75628C16.4672 3.92038 16.3751 4.14294 16.3751 4.375C16.3751 4.60706 16.4672 4.82962 16.6313 4.99372C16.7954 5.15781 17.018 5.25 17.2501 5.25ZM26.8751 8.75H26.0001V7.875C26.0001 7.64294 25.9079 7.42038 25.7438 7.25628C25.5797 7.09219 25.3571 7 25.1251 7C24.893 7 24.6704 7.09219 24.5063 7.25628C24.3422 7.42038 24.2501 7.64294 24.2501 7.875V8.75H23.3751C23.143 8.75 22.9204 8.84219 22.7563 9.00628C22.5922 9.17038 22.5001 9.39294 22.5001 9.625C22.5001 9.85706 22.5922 10.0796 22.7563 10.2437C22.9204 10.4078 23.143 10.5 23.3751 10.5H24.2501V11.375C24.2501 11.6071 24.3422 11.8296 24.5063 11.9937C24.6704 12.1578 24.893 12.25 25.1251 12.25C25.3571 12.25 25.5797 12.1578 25.7438 11.9937C25.9079 11.8296 26.0001 11.6071 26.0001 11.375V10.5H26.8751C27.1071 10.5 27.3297 10.4078 27.4938 10.2437C27.6579 10.0796 27.7501 9.85706 27.7501 9.625C27.7501 9.39294 27.6579 9.17038 27.4938 9.00628C27.3297 8.84219 27.1071 8.75 26.8751 8.75Z" fill="#FBBC05"/>
</svg>
