<svg width="22" height="22" viewBox="0 0 22 22" fill="none" xmlns="http://www.w3.org/2000/svg">
<path d="M20.625 11C20.6272 11.282 20.5415 11.5577 20.3798 11.7887C20.218 12.0197 19.9884 12.1946 19.7227 12.2891L14.2708 14.2717L12.2891 19.7227C12.1914 19.9858 12.0155 20.2128 11.7851 20.373C11.5547 20.5333 11.2807 20.6192 11 20.6192C10.7193 20.6192 10.4454 20.5333 10.2149 20.373C9.98449 20.2128 9.80862 19.9858 9.71094 19.7227L7.72922 14.2708L2.27735 12.2891C2.01421 12.1914 1.78726 12.0156 1.62699 11.7851C1.46673 11.5547 1.38083 11.2807 1.38083 11C1.38083 10.7193 1.46673 10.4454 1.62699 10.215C1.78726 9.98452 2.01421 9.80865 2.27735 9.71097L7.72922 7.72925L9.71094 2.27738C9.80862 2.01424 9.98449 1.78729 10.2149 1.62702C10.4454 1.46676 10.7193 1.38086 11 1.38086C11.2807 1.38086 11.5547 1.46676 11.7851 1.62702C12.0155 1.78729 12.1914 2.01424 12.2891 2.27738L14.2716 7.72925L19.7227 9.71097C19.9884 9.80544 20.218 9.98034 20.3798 10.2114C20.5415 10.4424 20.6272 10.718 20.625 11Z" fill="#FFB700"/>
</svg>
